<svg xmlns="http://www.w3.org/2000/svg" viewBox="0 0 32 32" fill="white">
  <path d="M16.04 2C8.83 2 3 7.83 3 15.04c0 2.66.78 5.15 2.12 7.25L3 30l7.93-2.08a13.03 13.03 0 0 0 5.11 1.04h.01c7.2 0 13.04-5.83 13.04-13.04C29.09 7.83 23.25 2 16.04 2zm7.6 18.47c-.32.9-1.6 1.66-2.58 1.88-.67.14-1.55.26-4.5-.97-3.78-1.57-6.2-5.38-6.39-5.63-.19-.25-1.53-2.03-1.53-3.88 0-1.85.96-2.76 1.3-3.14.34-.38.75-.47 1-.47.25 0 .5 0 .72.01.23.01.54-.09.85.65.32.74 1.1 2.55 1.2 2.73.1.18.17.39.03.63-.14.25-.21.4-.42.62-.21.21-.44.48-.63.64-.21.21-.43.44-.19.86.25.42 1.11 1.83 2.38 2.96 1.63 1.45 3.01 1.9 3.44 2.11.43.21.68.18.94-.11.25-.29 1.08-1.26 1.37-1.69.29-.43.58-.36.98-.21.4.14 2.54 1.2 2.97 1.42.43.21.72.32.83.5.11.18.11 1.04-.21 1.94z"/>
</svg>
